<?xml version="1.0" encoding="UTF-8" standalone="no"?>
<svg
   xmlns:dc="http://purl.org/dc/elements/1.1/"
   xmlns:cc="http://creativecommons.org/ns#"
   xmlns:rdf="http://www.w3.org/1999/02/22-rdf-syntax-ns#"
   xmlns:svg="http://www.w3.org/2000/svg"
   xmlns="http://www.w3.org/2000/svg"
   xmlns:sodipodi="http://sodipodi.sourceforge.net/DTD/sodipodi-0.dtd"
   xmlns:inkscape="http://www.inkscape.org/namespaces/inkscape"
   width="512"
   height="512"
   version="1.1"
   id="svg4"
   sodipodi:docname="icon.svg"
   inkscape:version="1.0.2 (e86c870879, 2021-01-15)">
  <metadata
     id="metadata10">
    <rdf:RDF>
      <cc:Work
         rdf:about="">
        <dc:format>image/svg+xml</dc:format>
        <dc:type
           rdf:resource="http://purl.org/dc/dcmitype/StillImage" />
        <dc:title />
      </cc:Work>
    </rdf:RDF>
  </metadata>
  <defs
     id="defs8" />
  <sodipodi:namedview
     pagecolor="#ffffff"
     bordercolor="#666666"
     borderopacity="1"
     objecttolerance="10"
     gridtolerance="10"
     guidetolerance="10"
     inkscape:pageopacity="0"
     inkscape:pageshadow="2"
     inkscape:window-width="1024"
     inkscape:window-height="518"
     id="namedview6"
     showgrid="false"
     inkscape:zoom="0.72730985"
     inkscape:cx="176.59602"
     inkscape:cy="276.25738"
     inkscape:window-x="237"
     inkscape:window-y="88"
     inkscape:window-maximized="0"
     inkscape:current-layer="svg4"
     inkscape:document-rotation="0"
     inkscape:snap-bbox="false"
     inkscape:bbox-paths="false"
     inkscape:bbox-nodes="false"
     inkscape:snap-page="true" />
  <circle
     style="fill:#53536c;stroke:#000000;stroke-width:3.59402;stroke-opacity:1"
     id="path37"
     cx="-257.7645"
     cy="-257.91196"
     r="254.80147"
     transform="scale(-1)" />
  <g
     id="g876"
     transform="matrix(0.71880373,0,0,0.71880373,-762.58034,56.402922)">
    <path
       style="fill:#000000;stroke:#000000;stroke-width:1px;stroke-linecap:butt;stroke-linejoin:miter;stroke-opacity:1"
       d="m 1715.3552,470.30874 -53.1202,32.02079 h -183.6384 c 0,0 -14.7859,13.50081 -54.4349,12.70556 -39.6491,-0.79525 -47.7342,-13.79342 -47.7342,-13.79342 h -202.268 l -50.7156,-30.93293 183.6921,-85.56975 284.1058,12.80709 z"
       id="path872"
       sodipodi:nodetypes="ccczcccccc" />
    <path
       id="rect867"
       style="fill:#ffffff;stroke:#000000;stroke-width:4.94117;stroke-opacity:1"
       d="m 1715.3552,470.30874 c 0,0 -140.7081,-30.51835 -211.3061,-24.07786 -27.4541,2.50457 -79.1218,24.07786 -79.1218,24.07786 0,0 -50.9429,-21.15115 -77.9954,-23.7222 -74.5785,-7.08787 -223.488,23.7222 -223.488,23.7222 V 89.597865 c 0,0 150.4842,-34.44088 225.7896,-26.11073 26.5207,2.93367 75.5852,26.35273 75.5852,26.35273 0,0 55.7331,-23.93061 85.4412,-26.51419 68.6646,-5.97146 205.0953,26.27219 205.0953,26.27219 z"
       sodipodi:nodetypes="cacaccacacc" />
  </g>
  <path
     style="fill:none;stroke:#000000;stroke-width:2.73146;stroke-linecap:butt;stroke-linejoin:miter;stroke-miterlimit:4;stroke-dasharray:none;stroke-opacity:1"
     d="m 261.66267,394.4626 -0.0785,-273.48245"
     id="path870"
     sodipodi:nodetypes="cc" />
  <path
     fill="none"
     stroke="#000000"
     stroke-width="14.4509"
     stroke-linecap="round"
     d="m 250.52445,280.8003 a 61.278319,61.554989 0 1 0 -0.80101,0.80464 l 68.08714,68.39442 m -36.44655,-47.07146 44.0562,44.25521 -10.41324,10.46033 -44.0562,-44.25521"
     id="path2"
     style="stroke:#000000;stroke-opacity:1" />
  <text
     xml:space="preserve"
     style="font-style:normal;font-weight:normal;font-size:53.6707px;line-height:1.25;font-family:sans-serif;fill:#000000;fill-opacity:1;stroke:none;stroke-width:0.718804"
     x="53.320095"
     y="268.65335"
     id="text880"><tspan
       sodipodi:role="line"
       id="tspan878"
       x="53.320095"
       y="268.65335"
       style="font-style:normal;font-variant:normal;font-weight:bold;font-stretch:normal;font-size:53.6707px;font-family:sans-serif;-inkscape-font-specification:'sans-serif Bold';stroke-width:0.718804">TO  <tspan
   id="tspan922"
   style="font-size:86.2565px;stroke-width:0.718804">D </tspan><tspan
   id="tspan936"
   style="font-size:26.6667px;letter-spacing:0px;stroke-width:0.718804"> </tspan>YWEN</tspan></text>
</svg>
